<mxfile host="65bd71144e">
    <diagram id="AWOF95vfsN2YZdQ41-am" name="ページ1">
        <mxGraphModel dx="554" dy="314" grid="1" gridSize="10" guides="1" tooltips="1" connect="1" arrows="1" fold="1" page="1" pageScale="1" pageWidth="1169" pageHeight="827" math="0" shadow="0">
            <root>
                <mxCell id="0"/>
                <mxCell id="1" parent="0"/>
                <mxCell id="62" value="" style="group" vertex="1" connectable="0" parent="1">
                    <mxGeometry x="40" y="20" width="140" height="80" as="geometry"/>
                </mxCell>
                <mxCell id="53" value="ログイン画面" style="text;html=1;strokeColor=none;fillColor=none;align=left;verticalAlign=middle;whiteSpace=wrap;rounded=0;fontSize=8;fontColor=#FFFFFF;fontStyle=1;container=0;" vertex="1" parent="62">
                    <mxGeometry width="140" height="20" as="geometry"/>
                </mxCell>
                <mxCell id="54" value="" style="rounded=0;whiteSpace=wrap;html=1;fontSize=8;fillColor=#ffe6cc;strokeColor=#d79b00;container=0;" vertex="1" parent="62">
                    <mxGeometry y="20" width="140" height="60" as="geometry"/>
                </mxCell>
                <mxCell id="59" value="新規登録" style="whiteSpace=wrap;html=1;fillColor=#dae8fc;strokeColor=#6c8ebf;fontColor=#000000;fontSize=8;container=0;" vertex="1" parent="62">
                    <mxGeometry x="20" y="35" width="40" height="30" as="geometry"/>
                </mxCell>
                <mxCell id="60" value="ログイン" style="whiteSpace=wrap;html=1;fillColor=#dae8fc;strokeColor=#6c8ebf;fontColor=#000000;fontSize=8;container=0;" vertex="1" parent="62">
                    <mxGeometry x="80" y="35" width="40" height="30" as="geometry"/>
                </mxCell>
                <mxCell id="69" value="" style="group" vertex="1" connectable="0" parent="1">
                    <mxGeometry x="40" y="140" width="240" height="80" as="geometry"/>
                </mxCell>
                <mxCell id="64" value="ユーザー登録画面" style="text;html=1;strokeColor=none;fillColor=none;align=left;verticalAlign=middle;whiteSpace=wrap;rounded=0;fontSize=8;fontColor=#FFFFFF;fontStyle=1;container=0;" vertex="1" parent="69">
                    <mxGeometry width="240" height="20" as="geometry"/>
                </mxCell>
                <mxCell id="65" value="" style="rounded=0;whiteSpace=wrap;html=1;fontSize=8;fillColor=#ffe6cc;strokeColor=#d79b00;container=0;" vertex="1" parent="69">
                    <mxGeometry y="20" width="240" height="60" as="geometry"/>
                </mxCell>
                <mxCell id="66" value="登録" style="whiteSpace=wrap;html=1;fillColor=#dae8fc;strokeColor=#6c8ebf;fontColor=#000000;fontSize=8;container=0;" vertex="1" parent="69">
                    <mxGeometry x="20" y="35" width="40" height="30" as="geometry"/>
                </mxCell>
                <mxCell id="67" value="リセット" style="whiteSpace=wrap;html=1;fillColor=#dae8fc;strokeColor=#6c8ebf;fontColor=#000000;fontSize=8;container=0;" vertex="1" parent="69">
                    <mxGeometry x="80" y="35" width="40" height="30" as="geometry"/>
                </mxCell>
                <mxCell id="68" value="ログイン画面へ戻る" style="whiteSpace=wrap;html=1;fillColor=#dae8fc;strokeColor=#6c8ebf;fontColor=#000000;fontSize=8;" vertex="1" parent="69">
                    <mxGeometry x="140" y="35" width="80" height="30" as="geometry"/>
                </mxCell>
                <mxCell id="70" value="" style="group" vertex="1" connectable="0" parent="1">
                    <mxGeometry x="40" y="260" width="240" height="80" as="geometry"/>
                </mxCell>
                <mxCell id="71" value="ユーザー登録確認画面" style="text;html=1;strokeColor=none;fillColor=none;align=left;verticalAlign=middle;whiteSpace=wrap;rounded=0;fontSize=8;fontColor=#FFFFFF;fontStyle=1;container=0;" vertex="1" parent="70">
                    <mxGeometry width="240" height="20" as="geometry"/>
                </mxCell>
                <mxCell id="72" value="" style="rounded=0;whiteSpace=wrap;html=1;fontSize=8;fillColor=#ffe6cc;strokeColor=#d79b00;container=0;" vertex="1" parent="70">
                    <mxGeometry y="20" width="240" height="60" as="geometry"/>
                </mxCell>
                <mxCell id="73" value="はい" style="whiteSpace=wrap;html=1;fillColor=#dae8fc;strokeColor=#6c8ebf;fontColor=#000000;fontSize=8;container=0;" vertex="1" parent="70">
                    <mxGeometry x="20" y="35" width="40" height="30" as="geometry"/>
                </mxCell>
                <mxCell id="74" value="いいえ" style="whiteSpace=wrap;html=1;fillColor=#dae8fc;strokeColor=#6c8ebf;fontColor=#000000;fontSize=8;container=0;" vertex="1" parent="70">
                    <mxGeometry x="80" y="35" width="40" height="30" as="geometry"/>
                </mxCell>
                <mxCell id="75" value="ログイン画面へ戻る" style="whiteSpace=wrap;html=1;fillColor=#dae8fc;strokeColor=#6c8ebf;fontColor=#000000;fontSize=8;" vertex="1" parent="70">
                    <mxGeometry x="140" y="35" width="80" height="30" as="geometry"/>
                </mxCell>
                <mxCell id="84" value="" style="group" vertex="1" connectable="0" parent="1">
                    <mxGeometry x="40" y="380" width="140" height="120" as="geometry"/>
                </mxCell>
                <mxCell id="77" value="ユーザー登録完了画面" style="text;html=1;strokeColor=none;fillColor=none;align=left;verticalAlign=middle;whiteSpace=wrap;rounded=0;fontSize=8;fontColor=#FFFFFF;fontStyle=1;container=0;" vertex="1" parent="84">
                    <mxGeometry width="140" height="20" as="geometry"/>
                </mxCell>
                <mxCell id="78" value="" style="rounded=0;whiteSpace=wrap;html=1;fontSize=8;fillColor=#ffe6cc;strokeColor=#d79b00;container=0;" vertex="1" parent="84">
                    <mxGeometry y="20" width="140" height="100" as="geometry"/>
                </mxCell>
                <mxCell id="82" value="&lt;p style=&quot;margin-top: 0pt; margin-bottom: 0pt; margin-left: 0in; text-indent: 0in;&quot;&gt;&lt;span style=&quot;font-size:11.0pt;font-family:&lt;br/&gt;游ゴシック;mso-ascii-font-family:Calibri;mso-fareast-font-family:游ゴシック;mso-bidi-font-family:&lt;br/&gt;+mn-cs;mso-ascii-theme-font:minor-latin;mso-fareast-theme-font:minor-fareast;&lt;br/&gt;mso-bidi-theme-font:minor-bidi;color:white;mso-color-index:14;language:ja;&lt;br/&gt;text-combine:letters;font-weight:bold;mso-style-textfill-type:solid;mso-style-textfill-fill-themecolor:&lt;br/&gt;light1;mso-style-textfill-fill-color:white;mso-style-textfill-fill-alpha:100.0%&quot;&gt;ログインして一覧画面へ&lt;/span&gt;&lt;/p&gt;" style="whiteSpace=wrap;html=1;fillColor=#dae8fc;strokeColor=#6c8ebf;fontColor=#000000;fontSize=8;" vertex="1" parent="84">
                    <mxGeometry x="20" y="34" width="100" height="30" as="geometry"/>
                </mxCell>
                <mxCell id="83" value="&lt;p style=&quot;margin-top: 0pt; margin-bottom: 0pt; margin-left: 0in; text-indent: 0in;&quot;&gt;&lt;span style=&quot;font-size:11.0pt;font-family:&lt;br/&gt;游ゴシック;mso-ascii-font-family:Calibri;mso-fareast-font-family:游ゴシック;mso-bidi-font-family:&lt;br/&gt;+mn-cs;mso-ascii-theme-font:minor-latin;mso-fareast-theme-font:minor-fareast;&lt;br/&gt;mso-bidi-theme-font:minor-bidi;color:white;mso-color-index:14;language:ja;&lt;br/&gt;text-combine:letters;font-weight:bold;mso-style-textfill-type:solid;mso-style-textfill-fill-themecolor:&lt;br/&gt;light1;mso-style-textfill-fill-color:white;mso-style-textfill-fill-alpha:100.0%&quot;&gt;ログイン画面へ戻る&lt;/span&gt;&lt;/p&gt;" style="whiteSpace=wrap;html=1;fillColor=#dae8fc;strokeColor=#6c8ebf;fontColor=#000000;fontSize=8;" vertex="1" parent="84">
                    <mxGeometry x="20" y="80" width="100" height="30" as="geometry"/>
                </mxCell>
                <mxCell id="85" value="" style="endArrow=classic;html=1;fontColor=#000000;edgeStyle=orthogonalEdgeStyle;fillColor=#ffe6cc;strokeColor=#d79b00;exitX=0.5;exitY=1;exitDx=0;exitDy=0;entryX=1;entryY=0.5;entryDx=0;entryDy=0;startArrow=none;" edge="1" parent="1" source="68" target="53">
                    <mxGeometry width="50" height="50" relative="1" as="geometry">
                        <mxPoint x="300" y="410.03000000000014" as="sourcePoint"/>
                        <mxPoint x="399.68000000000006" y="181.38000000000002" as="targetPoint"/>
                        <Array as="points">
                            <mxPoint x="220" y="240"/>
                            <mxPoint x="320" y="240"/>
                            <mxPoint x="320" y="30"/>
                        </Array>
                    </mxGeometry>
                </mxCell>
                <mxCell id="86" value="" style="endArrow=classic;html=1;fontSize=8;fontColor=#FFFFFF;fillColor=#ffe6cc;strokeColor=#d79b00;exitX=0.5;exitY=1;exitDx=0;exitDy=0;entryX=0.167;entryY=0;entryDx=0;entryDy=0;entryPerimeter=0;" edge="1" parent="1" source="59" target="64">
                    <mxGeometry width="50" height="50" relative="1" as="geometry">
                        <mxPoint x="160" y="120" as="sourcePoint"/>
                        <mxPoint x="260" y="120" as="targetPoint"/>
                    </mxGeometry>
                </mxCell>
                <mxCell id="87" value="" style="endArrow=classic;html=1;fontSize=8;fontColor=#FFFFFF;fillColor=#ffe6cc;strokeColor=#d79b00;exitX=0.5;exitY=1;exitDx=0;exitDy=0;entryX=0.167;entryY=0;entryDx=0;entryDy=0;entryPerimeter=0;" edge="1" parent="1" source="66" target="71">
                    <mxGeometry width="50" height="50" relative="1" as="geometry">
                        <mxPoint x="100" y="220" as="sourcePoint"/>
                        <mxPoint x="80" y="250" as="targetPoint"/>
                    </mxGeometry>
                </mxCell>
                <mxCell id="88" value="" style="endArrow=classic;html=1;fontSize=8;fontColor=#FFFFFF;fillColor=#ffe6cc;strokeColor=#d79b00;exitX=0.5;exitY=1;exitDx=0;exitDy=0;entryX=0.286;entryY=0;entryDx=0;entryDy=0;entryPerimeter=0;" edge="1" parent="1" source="73" target="77">
                    <mxGeometry width="50" height="50" relative="1" as="geometry">
                        <mxPoint x="109.78999999999999" y="360" as="sourcePoint"/>
                        <mxPoint x="90" y="370" as="targetPoint"/>
                    </mxGeometry>
                </mxCell>
                <mxCell id="89" value="" style="endArrow=classic;html=1;fontColor=#000000;edgeStyle=orthogonalEdgeStyle;fillColor=#ffe6cc;strokeColor=#d79b00;exitX=0.5;exitY=1;exitDx=0;exitDy=0;entryX=1;entryY=0.5;entryDx=0;entryDy=0;startArrow=none;" edge="1" parent="1" source="75" target="53">
                    <mxGeometry width="50" height="50" relative="1" as="geometry">
                        <mxPoint x="340" y="370" as="sourcePoint"/>
                        <mxPoint x="300" y="195" as="targetPoint"/>
                        <Array as="points">
                            <mxPoint x="220" y="360"/>
                            <mxPoint x="320" y="360"/>
                            <mxPoint x="320" y="30"/>
                        </Array>
                    </mxGeometry>
                </mxCell>
                <mxCell id="90" value="" style="endArrow=classic;html=1;fontColor=#000000;edgeStyle=orthogonalEdgeStyle;fillColor=#ffe6cc;strokeColor=#d79b00;exitX=1;exitY=0.5;exitDx=0;exitDy=0;entryX=1;entryY=0.5;entryDx=0;entryDy=0;startArrow=none;" edge="1" parent="1" source="83" target="53">
                    <mxGeometry width="50" height="50" relative="1" as="geometry">
                        <mxPoint x="260" y="405" as="sourcePoint"/>
                        <mxPoint x="220" y="110" as="targetPoint"/>
                        <Array as="points">
                            <mxPoint x="320" y="475"/>
                            <mxPoint x="320" y="30"/>
                        </Array>
                    </mxGeometry>
                </mxCell>
                <mxCell id="91" value="" style="endArrow=classic;html=1;fontSize=8;fontColor=#FFFFFF;fillColor=#ffe6cc;strokeColor=#d79b00;exitX=0.5;exitY=0;exitDx=0;exitDy=0;entryX=0.417;entryY=1;entryDx=0;entryDy=0;entryPerimeter=0;" edge="1" parent="1" source="74" target="65">
                    <mxGeometry width="50" height="50" relative="1" as="geometry">
                        <mxPoint x="90" y="215" as="sourcePoint"/>
                        <mxPoint x="140" y="240" as="targetPoint"/>
                    </mxGeometry>
                </mxCell>
                <mxCell id="92" value="" style="group" vertex="1" connectable="0" parent="1">
                    <mxGeometry x="400" y="20" width="140" height="120" as="geometry"/>
                </mxCell>
                <mxCell id="93" value="ＴＯＰ画面" style="text;html=1;strokeColor=none;fillColor=none;align=left;verticalAlign=middle;whiteSpace=wrap;rounded=0;fontSize=8;fontColor=#FFFFFF;fontStyle=1;container=0;" vertex="1" parent="92">
                    <mxGeometry width="140" height="20" as="geometry"/>
                </mxCell>
                <mxCell id="94" value="" style="rounded=0;whiteSpace=wrap;html=1;fontSize=8;fillColor=#ffe6cc;strokeColor=#d79b00;container=0;" vertex="1" parent="92">
                    <mxGeometry y="20" width="140" height="100" as="geometry"/>
                </mxCell>
                <mxCell id="95" value="&lt;p style=&quot;margin-top: 0pt; margin-bottom: 0pt; margin-left: 0in; text-indent: 0in;&quot;&gt;&lt;span style=&quot;font-size:11.0pt;font-family:&lt;br/&gt;游ゴシック;mso-ascii-font-family:Calibri;mso-fareast-font-family:游ゴシック;mso-bidi-font-family:&lt;br/&gt;+mn-cs;mso-ascii-theme-font:minor-latin;mso-fareast-theme-font:minor-fareast;&lt;br/&gt;mso-bidi-theme-font:minor-bidi;color:white;mso-color-index:14;language:ja;&lt;br/&gt;text-combine:letters;font-weight:bold;mso-style-textfill-type:solid;mso-style-textfill-fill-themecolor:&lt;br/&gt;light1;mso-style-textfill-fill-color:white;mso-style-textfill-fill-alpha:100.0%&quot;&gt;ログインして一覧画面へ&lt;/span&gt;&lt;/p&gt;" style="whiteSpace=wrap;html=1;fillColor=#dae8fc;strokeColor=#6c8ebf;fontColor=#000000;fontSize=8;" vertex="1" parent="92">
                    <mxGeometry x="20" y="34" width="100" height="30" as="geometry"/>
                </mxCell>
                <mxCell id="96" value="&lt;p style=&quot;margin-top: 0pt; margin-bottom: 0pt; margin-left: 0in; text-indent: 0in;&quot;&gt;&lt;span style=&quot;font-size:11.0pt;font-family:&lt;br/&gt;游ゴシック;mso-ascii-font-family:Calibri;mso-fareast-font-family:游ゴシック;mso-bidi-font-family:&lt;br/&gt;+mn-cs;mso-ascii-theme-font:minor-latin;mso-fareast-theme-font:minor-fareast;&lt;br/&gt;mso-bidi-theme-font:minor-bidi;color:white;mso-color-index:14;language:ja;&lt;br/&gt;text-combine:letters;font-weight:bold;mso-style-textfill-type:solid;mso-style-textfill-fill-themecolor:&lt;br/&gt;light1;mso-style-textfill-fill-color:white;mso-style-textfill-fill-alpha:100.0%&quot;&gt;ログイン画面へ戻る&lt;/span&gt;&lt;/p&gt;" style="whiteSpace=wrap;html=1;fillColor=#dae8fc;strokeColor=#6c8ebf;fontColor=#000000;fontSize=8;" vertex="1" parent="92">
                    <mxGeometry x="20" y="80" width="100" height="30" as="geometry"/>
                </mxCell>
                <mxCell id="97" value="" style="endArrow=classic;html=1;fontColor=#000000;edgeStyle=orthogonalEdgeStyle;fillColor=#ffe6cc;strokeColor=#d79b00;entryX=0;entryY=0.5;entryDx=0;entryDy=0;startArrow=none;exitX=1;exitY=0.5;exitDx=0;exitDy=0;rounded=1;jumpStyle=arc;" edge="1" parent="1" source="82" target="93">
                    <mxGeometry width="50" height="50" relative="1" as="geometry">
                        <mxPoint x="170" y="430" as="sourcePoint"/>
                        <mxPoint x="250" y="70" as="targetPoint"/>
                        <Array as="points">
                            <mxPoint x="160" y="430"/>
                            <mxPoint x="350" y="430"/>
                            <mxPoint x="350" y="30"/>
                        </Array>
                    </mxGeometry>
                </mxCell>
                <mxCell id="98" value="" style="endArrow=classic;html=1;fontColor=#000000;edgeStyle=orthogonalEdgeStyle;fillColor=#ffe6cc;strokeColor=#d79b00;startArrow=none;exitX=1;exitY=0.5;exitDx=0;exitDy=0;entryX=0;entryY=0.5;entryDx=0;entryDy=0;noJump=0;jumpStyle=arc;" edge="1" parent="1" source="60" target="93">
                    <mxGeometry width="50" height="50" relative="1" as="geometry">
                        <mxPoint x="210" y="80" as="sourcePoint"/>
                        <mxPoint x="350" as="targetPoint"/>
                        <Array as="points">
                            <mxPoint x="350" y="70"/>
                            <mxPoint x="350" y="30"/>
                        </Array>
                    </mxGeometry>
                </mxCell>
            </root>
        </mxGraphModel>
    </diagram>
</mxfile>